<?xml version="1.0" encoding="utf-8"?>
<!-- Generator: Adobe Illustrator 27.5.0, SVG Export Plug-In . SVG Version: 6.00 Build 0)  -->
<svg version="1.1" xmlns="http://www.w3.org/2000/svg" xmlns:xlink="http://www.w3.org/1999/xlink" x="0px" y="0px"
	 viewBox="0 0 500 500" style="enable-background:new 0 0 500 500;" xml:space="preserve">
<g id="BACKGROUND">
	<rect x="0.016" y="0.001" style="fill:#FFFFFF;" width="500" height="500"/>
</g>
<g id="OBJECTS">
	<g>
		<path style="fill:#FF4A4A;" d="M303.125,65.397c-98.511-29.284-202.48,27.035-231.764,125.546
			c-29.284,98.511,27.036,202.481,125.547,231.765c98.511,29.284,202.481-27.036,231.765-125.547S401.636,94.682,303.125,65.397z
			 M204.645,396.682c-84.16-25.018-132.276-113.841-107.257-198.001c25.018-84.16,113.841-132.275,198.001-107.257
			c84.16,25.018,132.276,113.841,107.258,198.001C377.628,373.585,288.805,421.7,204.645,396.682z"/>
		<path style="fill:#09222E;" d="M276.549,212.452l7.105,2.091c19.248,5.386,47.264,10.949,80.623,10.79
			c64.242-0.305,70.903-50.352,32.961-50.172c-36.363,0.173-61.967,20.479-128.557,22.476l-4.431-0.002l3.768-3.803l20.596-19.981
			c0.296-0.288,0.484-0.667,0.536-1.075l4.038-40.467l31.251-23.976c0.778-0.75,0.097-2.026-1.479-0.944l-31.568,23.101
			c-0.403,0.295-0.667,0.743-0.729,1.238l-5.038,39.962l-18.083,17.533c-1.373-6.811-3.756-12.656-6.811-16.812
			c0,0-2.757-4.322-7.115-7.803c3.36,1.422,6.453,3.914,8.94,6.369c2.296-2.045,3.93-4.621,4.567-7.5
			c-1-4.322-4.222-10.495-8.618-14.497c3.266-16.908,10.67-32.847,21.745-46.292c-0.179-0.153-0.358-0.306-0.537-0.458
			c-11.354,12.812-19.394,28.261-23.468,44.992c-1.693-1.133-3.51-1.902-5.41-2.134L249.6,69.858h-0.004l-0.702,0.003l-0.004,0
			l-0.531,75.238c-1.898,0.25-3.708,1.036-5.39,2.185c-4.231-16.692-12.415-32.065-23.888-44.77
			c-0.178,0.155-0.355,0.309-0.532,0.464c11.201,13.34,18.753,29.21,22.178,46.086c-4.358,4.043-7.522,10.246-8.482,14.577
			c0.664,2.872,2.322,5.433,4.637,7.457c2.464-2.478,5.533-5,8.88-6.452c-4.326,3.522-7.041,7.869-7.041,7.869
			c-3.016,4.184-5.344,10.052-6.654,16.875l-18.246-17.363l-5.412-39.913c-0.067-0.495-0.335-0.94-0.741-1.231l-31.783-22.804
			c-1.586-1.067-2.255,0.215-1.47,0.958l31.474,23.682l4.417,40.428c0.056,0.408,0.247,0.785,0.546,1.07l20.783,19.787l3.803,3.768
			l-4.431,0.044c-66.606-1.373-92.399-21.439-128.762-21.271c-37.942,0.175-30.812,50.158,33.43,49.861
			c33.359-0.154,61.322-5.98,80.519-11.546l7.085-2.158c2.987-0.957,5.68-1.879,8.066-2.738l12.15-3.214l-11.777,5.844
			c0.073,0.452,0.145,0.906,0.225,1.352l-41.902,35.015c-0.347,0.291-0.574,0.701-0.635,1.15l-7.383,60.335l-28.007,34.242
			l-29.699,16.719c0.351,0.427,0.865,0.674,1.402,0.672c0.285-0.001,0.574-0.07,0.844-0.213l28.693-15.271
			c0.208-0.11,0.392-0.26,0.542-0.441l28.605-34.345c0.218-0.262,0.357-0.58,0.404-0.918l8.104-59.591l39.898-33.339l5.551-4.506
			l-4.992,6.538c0.543,1.841,1.165,3.585,1.86,5.211l-32.118,52.299c-0.235,0.383-0.32,0.84-0.238,1.282l12.406,61.537
			l-27.262,44.262l-0.101,0.095c-1.699,1.693-25.694,26.977-25.694,26.977c0.356,0.342,0.814,0.513,1.272,0.51
			c0.472-0.002,0.943-0.187,1.297-0.553l24.71-25.547c0.087-0.09,0.164-0.189,0.23-0.295l27.953-44.334
			c0.244-0.386,0.333-0.85,0.249-1.3l-11.361-61.328l30.555-49.754l3.621-6.786l-2.346,8.819c0.976,1.441,2.02,2.719,3.131,3.781
			c-1.705,2.758-2.739,5.681-2.732,7.147c0.008,1.645,1.335,3.12,3.448,4.171l3.647,1.64l-5.314,0.463
			c-2.703,3.801-4.389,8.27-4.379,10.356c0.011,2.422,2.322,4.549,5.848,5.845l4.652,1.575l-6.304,0.587
			c-2.545,3.71-4.122,7.943-4.113,9.958c0.012,2.59,2.652,4.842,6.598,6.101l4.594,1.593l-6.396,0.559
			c-2.893,3.887-4.718,8.618-4.708,10.786c0.012,2.605,2.683,4.869,6.667,6.122l5.342,1.774l-7.14,1.019
			c-1.336,2.422-2.13,4.816-2.124,6.097c0.007,1.495,1.126,2.838,2.909,3.863l4.408,1.569l-5.779,0.346
			c-0.132,0.362-0.225,0.732-0.223,1.116c0.014,3.08,4.517,12.863,10.016,12.838c0.006,0,0.012-0.001,0.018-0.001
			c0.006,0,0.012,0.001,0.018,0.001c5.499-0.026,9.91-9.851,9.895-12.931c-0.002-0.384-0.098-0.753-0.234-1.113l-5.782-0.292
			l4.393-1.61c1.773-1.041,2.88-2.395,2.873-3.89c-0.006-1.281-0.823-3.667-2.182-6.076l-7.149-0.952l5.325-1.824
			c3.972-1.291,6.622-3.58,6.609-6.184c-0.01-2.168-1.88-6.882-4.809-10.741l-6.401-0.5l4.579-1.636
			c3.933-1.295,6.552-3.573,6.54-6.162c-0.01-2.015-1.626-6.234-4.206-9.92l-6.309-0.528l4.637-1.619
			c3.513-1.328,5.804-3.478,5.793-5.9c-0.01-2.086-1.737-6.539-4.476-10.314l-5.318-0.413l3.631-1.674
			c2.103-1.071,3.417-2.558,3.409-4.203c-0.007-1.466-1.068-4.38-2.799-7.121c1.101-1.072,2.133-2.36,3.095-3.81l-2.429-8.796
			l3.685,6.752l31.02,49.465l-10.786,61.432c-0.08,0.45,0.014,0.914,0.262,1.297l28.367,44.07c0.067,0.105,0.146,0.203,0.233,0.293
			l24.948,25.314c0.358,0.363,0.83,0.543,1.302,0.541c0.458-0.002,0.914-0.176,1.267-0.522c0,0-24.231-25.058-25.945-26.735
			l-0.101-0.094l-27.676-44.004l11.829-61.65c0.078-0.443-0.012-0.899-0.25-1.28l-32.607-51.995c0.68-1.632,1.285-3.382,1.812-5.228
			l-5.053-6.491l5.594,4.453l40.209,32.964l8.662,59.513c0.049,0.338,0.192,0.654,0.412,0.914l28.926,34.076
			c0.152,0.179,0.338,0.327,0.547,0.436l28.835,15.002c0.271,0.141,0.561,0.207,0.846,0.205c0.537-0.002,1.048-0.255,1.396-0.685
			l-29.854-16.44l-28.327-33.978l-7.948-60.263c-0.065-0.449-0.296-0.856-0.646-1.144l-42.229-34.621
			c0.077-0.447,0.144-0.901,0.213-1.354l-11.831-5.733l12.18,3.101C270.852,210.626,273.553,211.523,276.549,212.452z"/>
		<g>
			
				<rect x="76.488" y="231.329" transform="matrix(0.8793 -0.4763 0.4763 0.8793 -84.317 147.1333)" style="fill:#FF4A4A;" width="343.231" height="17.152"/>
		</g>
	</g>
</g>
<g id="DESIGNED_BY_FREEPIK">
	<g>
		<g id="XMLID_113_">
			<g id="XMLID_132_">
				<path id="XMLID_140_" d="M260.104,467.778c-0.432,0.443-0.803,0.931-1.108,1.453l-0.465-0.241
					c-0.067-0.298-0.349-0.503-0.659-0.466c-0.331,0.039-0.568,0.339-0.529,0.67c0.039,0.331,0.339,0.568,0.67,0.529
					c0.065-0.008,0.127-0.026,0.184-0.052l0.452,0.234c-0.251,0.554-0.433,1.139-0.539,1.744l0.747,0.132
					c0.23-1.306,0.85-2.507,1.792-3.472L260.104,467.778z"/>
				<path id="XMLID_139_" d="M265.592,465.476c-0.171,0-0.341,0.006-0.51,0.017l-0.074-0.626c0.188-0.149,0.296-0.389,0.266-0.645
					c-0.046-0.393-0.402-0.674-0.796-0.628s-0.674,0.402-0.628,0.795c0.03,0.254,0.189,0.461,0.405,0.564l0.073,0.624
					c-0.714,0.116-1.403,0.332-2.06,0.646l0.327,0.684c0.934-0.447,1.942-0.673,2.995-0.673c0.496,0,0.993,0.053,1.475,0.158
					l0.161-0.741C266.693,465.535,266.142,465.476,265.592,465.476z"/>
				<path id="XMLID_138_" d="M272.194,468.023c0.331-0.04,0.566-0.341,0.526-0.672c-0.04-0.331-0.342-0.566-0.672-0.526
					c-0.309,0.038-0.535,0.304-0.53,0.609l-0.416,0.363c-0.418-0.43-0.89-0.813-1.408-1.139l-0.404,0.641
					c1.134,0.715,2.021,1.726,2.563,2.925l0.69-0.313c-0.251-0.554-0.568-1.072-0.942-1.545l0.402-0.351
					C272.065,468.028,272.129,468.031,272.194,468.023z"/>
				<path id="XMLID_137_" d="M265.044,475.684c-0.386,0.023-0.775,0.035-1.157,0.035c-0.88,0-1.733-0.061-2.478-0.179
					c-0.39-0.062-0.846-0.155-1.27-0.292c1.046,1.861,3.069,3.125,5.388,3.125c2.856,0,5.262-1.916,5.95-4.504
					c-0.682,0.449-1.505,0.825-2.459,1.123C267.839,475.36,266.464,475.599,265.044,475.684z"/>
				<path id="XMLID_133_" d="M265.592,466.992c-3.352,0-6.08,2.666-6.08,5.944c0,0.426,0.046,0.849,0.137,1.261
					c0.673,0.483,2.706,0.89,5.347,0.731c2.879-0.173,5.297-0.957,6.672-2.158c-0.005-0.195-0.021-0.39-0.045-0.582
					C271.244,469.226,268.651,466.992,265.592,466.992z M263.433,473.507c-1.02,0-1.85-0.83-1.85-1.85c0-1.02,0.83-1.85,1.85-1.85
					c1.02,0,1.85,0.83,1.85,1.85C265.282,472.677,264.452,473.507,263.433,473.507z M268.17,472.599c-0.75,0-1.36-0.61-1.36-1.36
					s0.61-1.361,1.36-1.361c0.75,0,1.361,0.61,1.361,1.361S268.92,472.599,268.17,472.599z"/>
			</g>
			<path id="XMLID_130_" d="M281.595,468.859c-0.295-0.116-0.805-0.309-1.382-0.237c-0.551,0.068-0.844,0.34-0.844,1.007v0.866
				h2.228v1.717h-2.228v5.455h-1.932v-5.455h-1.34v-1.717h1.34v-0.888c0-1.68,0.895-2.783,2.568-2.783
				c0.643,0,1.157,0.122,1.59,0.308L281.595,468.859z"/>
			<path id="XMLID_128_" d="M286.298,472.191c-0.177-0.03-0.358-0.046-0.526-0.046c-0.895,0-1.51,0.548-1.51,1.613v3.908h-1.932
				v-7.172h1.873v0.785c0.451-0.674,1.14-0.977,2.021-0.977c0.414,0,0.848,0.128,1.094,0.337L286.298,472.191z"/>
			<path id="XMLID_125_" d="M293.965,474.069c0,0.222-0.015,0.489-0.037,0.651h-5.085c0.207,1.036,0.932,1.488,1.843,1.488
				c0.622,0,1.295-0.252,1.813-0.688l1.133,1.243c-0.814,0.748-1.85,1.088-3.057,1.088c-2.198,0-3.723-1.495-3.723-3.753
				c0-2.257,1.48-3.797,3.626-3.797C292.544,470.302,293.958,471.834,293.965,474.069z M288.851,473.403h3.175
				c-0.177-0.918-0.733-1.436-1.562-1.436C289.554,471.967,289.021,472.515,288.851,473.403z"/>
			<path id="XMLID_122_" d="M301.619,474.069c0,0.222-0.015,0.489-0.037,0.651h-5.085c0.207,1.036,0.932,1.488,1.843,1.488
				c0.622,0,1.295-0.252,1.813-0.688l1.133,1.243c-0.814,0.748-1.851,1.088-3.057,1.088c-2.198,0-3.723-1.495-3.723-3.753
				c0-2.257,1.48-3.797,3.627-3.797C300.197,470.302,301.611,471.834,301.619,474.069z M296.504,473.403h3.175
				c-0.178-0.918-0.733-1.436-1.562-1.436C297.207,471.967,296.674,472.515,296.504,473.403z"/>
			<path id="XMLID_119_" d="M309.964,474.077c0,2.154-1.495,3.775-3.471,3.775c-0.962,0-1.643-0.378-2.109-0.933v3.708h-1.924
				v-10.133h1.887v0.792c0.466-0.585,1.155-0.984,2.139-0.984C308.469,470.302,309.964,471.923,309.964,474.077z M304.287,474.077
				c0,1.132,0.747,1.976,1.843,1.976c1.14,0,1.85-0.881,1.85-1.976c0-1.095-0.711-1.976-1.85-1.976
				C305.035,472.101,304.287,472.944,304.287,474.077z"/>
			<path id="XMLID_116_" d="M313.068,468.148c0,0.696-0.54,1.229-1.236,1.229c-0.696,0-1.229-0.533-1.229-1.229
				c0-0.696,0.533-1.243,1.229-1.243C312.527,466.905,313.068,467.453,313.068,468.148z M312.809,477.667h-1.932v-7.172h1.932
				V477.667z"/>
			<path id="XMLID_114_" d="M316.032,473.048l2.702-2.554h2.368l-3.479,3.375l3.501,3.797h-2.376l-2.716-2.901v2.901h-1.932v-10.658
				h1.932V473.048z"/>
		</g>
		<g>
			<path d="M184.413,477.602v-1.055c-0.527,0.718-1.391,1.23-2.388,1.23c-1.846,0-3.149-1.406-3.149-3.706
				c0-2.256,1.289-3.721,3.149-3.721c0.952,0,1.816,0.469,2.388,1.245v-3.765h1.099v9.77H184.413z M184.413,475.683v-3.208
				c-0.395-0.615-1.245-1.143-2.124-1.143c-1.421,0-2.271,1.172-2.271,2.739c0,1.567,0.85,2.724,2.271,2.724
				C183.168,476.796,184.017,476.298,184.413,475.683z"/>
			<path d="M186.932,474.057c0-2.051,1.465-3.706,3.486-3.706c2.139,0,3.398,1.67,3.398,3.794v0.279h-5.727
				c0.088,1.333,1.026,2.446,2.549,2.446c0.806,0,1.626-0.322,2.182-0.893l0.527,0.718c-0.703,0.703-1.655,1.084-2.812,1.084
				C188.441,477.777,186.932,476.269,186.932,474.057z M190.404,471.259c-1.509,0-2.256,1.274-2.315,2.358h4.644
				C192.718,472.563,192.015,471.259,190.404,471.259z"/>
			<path d="M194.607,476.664l0.571-0.791c0.469,0.542,1.362,1.011,2.329,1.011c1.084,0,1.67-0.513,1.67-1.216
				c0-1.714-4.38-0.659-4.38-3.281c0-1.098,0.952-2.036,2.636-2.036c1.201,0,2.051,0.454,2.622,1.026l-0.513,0.762
				c-0.424-0.513-1.201-0.894-2.109-0.894c-0.967,0-1.567,0.483-1.567,1.113c0,1.552,4.38,0.527,4.38,3.281
				c0,1.187-0.952,2.139-2.783,2.139C196.306,477.777,195.325,477.426,194.607,476.664z"/>
			<path d="M201.477,468.784c0-0.41,0.337-0.747,0.732-0.747c0.41,0,0.747,0.337,0.747,0.747c0,0.41-0.337,0.732-0.747,0.732
				C201.814,469.516,201.477,469.194,201.477,468.784z M201.667,477.602v-7.075h1.099v7.075H201.667z"/>
			<path d="M204.582,479.418l0.556-0.82c0.586,0.703,1.289,0.967,2.3,0.967c1.172,0,2.27-0.571,2.27-2.124v-1.011
				c-0.513,0.718-1.377,1.26-2.373,1.26c-1.845,0-3.149-1.377-3.149-3.662c0-2.27,1.289-3.677,3.149-3.677
				c0.952,0,1.802,0.469,2.373,1.245v-1.069h1.098v6.87c0,2.344-1.641,3.076-3.369,3.076
				C206.237,480.473,205.417,480.238,204.582,479.418z M209.709,475.566v-3.091c-0.381-0.615-1.23-1.143-2.109-1.143
				c-1.421,0-2.27,1.128-2.27,2.695c0,1.553,0.849,2.695,2.27,2.695C208.478,476.723,209.328,476.181,209.709,475.566z"/>
			<path d="M217.413,477.602v-4.629c0-1.245-0.63-1.64-1.582-1.64c-0.865,0-1.685,0.527-2.095,1.099v5.17h-1.099v-7.075h1.099v1.025
				c0.498-0.586,1.464-1.201,2.519-1.201c1.48,0,2.256,0.747,2.256,2.285v4.966H217.413z"/>
			<path d="M219.933,474.057c0-2.051,1.465-3.706,3.486-3.706c2.138,0,3.398,1.67,3.398,3.794v0.279h-5.727
				c0.088,1.333,1.025,2.446,2.549,2.446c0.806,0,1.626-0.322,2.183-0.893l0.527,0.718c-0.703,0.703-1.655,1.084-2.813,1.084
				C221.442,477.777,219.933,476.269,219.933,474.057z M223.404,471.259c-1.509,0-2.256,1.274-2.314,2.358h4.643
				C225.719,472.563,225.015,471.259,223.404,471.259z"/>
			<path d="M233.35,477.602v-1.055c-0.527,0.718-1.391,1.23-2.388,1.23c-1.846,0-3.149-1.406-3.149-3.706
				c0-2.256,1.289-3.721,3.149-3.721c0.952,0,1.817,0.469,2.388,1.245v-3.765h1.099v9.77H233.35z M233.35,475.683v-3.208
				c-0.396-0.615-1.245-1.143-2.124-1.143c-1.421,0-2.27,1.172-2.27,2.739c0,1.567,0.849,2.724,2.27,2.724
				C232.105,476.796,232.954,476.298,233.35,475.683z"/>
			<path d="M239.692,477.602v-9.77h1.098v3.765c0.572-0.776,1.421-1.245,2.388-1.245c1.845,0,3.149,1.465,3.149,3.721
				c0,2.299-1.304,3.706-3.149,3.706c-0.996,0-1.86-0.513-2.388-1.23v1.055H239.692z M242.9,476.796
				c1.436,0,2.286-1.157,2.286-2.724c0-1.568-0.85-2.739-2.286-2.739c-0.864,0-1.728,0.527-2.109,1.143v3.208
				C241.172,476.298,242.036,476.796,242.9,476.796z"/>
			<path d="M247.529,479.374c0.161,0.073,0.425,0.117,0.601,0.117c0.483,0,0.805-0.161,1.055-0.747l0.469-1.069l-2.959-7.148h1.187
				l2.358,5.801l2.344-5.801h1.201l-3.545,8.51c-0.425,1.025-1.143,1.421-2.08,1.435c-0.234,0-0.601-0.044-0.805-0.103
				L247.529,479.374z"/>
		</g>
	</g>
</g>
</svg>
