<svg xmlns:xlink="http://www.w3.org/1999/xlink" xmlns="http://www.w3.org/2000/svg" viewBox="0 0 296 296" width="296"  height="296" ><defs><style>.cls-1{fill:#c54762}.cls-2{fill:#fff}</style></defs><g id="Layer_2" data-name="Layer 2"><g id="Layer_1-2" data-name="Layer 1"><circle class="cls-1" cx="148" cy="148" r="148"/><path class="cls-2" d="M128.26 222.82c-3.61 6.53-19 21.33-20.88 23.74s.12 1.49 1.48 1.83 19.74-22.39 22.79-26.26a73.31 73.31 0 0 0 4-6.83 27.19 27.19 0 0 0-2.62-.82c-2.12 3.71-3.89 6.74-4.77 8.34z"/><path class="cls-2" d="M108.79 248.91h-.06a4.48 4.48 0 0 0-1-.08c-.63 0-1.27 0-1.53-.53s.11-1.2.81-2.08c.56-.69 2.11-2.3 4.25-4.52 5.24-5.42 14-14.5 16.58-19.14.84-1.53 2.44-4.29 4.47-7.78l.54-.93.79.22a22.3 22.3 0 0 1 2.28.73l.57.22-.3.53a69.44 69.44 0 0 1-4.07 6.91c-.26.27-20.96 26.45-23.33 26.45zm-1-1.15a5.32 5.32 0 0 1 1 .08c2.08-1 18.21-20.73 22.36-26a66.37 66.37 0 0 0 3.67-6.21c-.52-.18-1.06-.33-1.59-.48l-.12.21c-2 3.49-3.62 6.24-4.46 7.76-2.55 4.73-11.39 13.88-16.65 19.33-2 2.12-3.67 3.79-4.19 4.44a6.66 6.66 0 0 0-.59.86h.62z"/><path class="cls-2" d="m135.92 216-.44-.18c-.7-.27-1.46-.48-2.18-.68l-1.06-.3.35-.6 3.57-6.17.32-.55.49.4a17.65 17.65 0 0 0 2 1.41l.42.27-.23.44c-1.05 2-2.06 3.87-3 5.54zm-2.06-1.82c.52.15 1 .3 1.57.48.78-1.44 1.63-3 2.51-4.69-.38-.25-.77-.53-1.16-.83-1.01 1.73-2 3.43-2.92 5.01z"/><path class="cls-2" d="M150 181.74c0 .46-.06.79-.06 1 0 2.23-7.08 14.87-13.26 25.6a19.3 19.3 0 0 0 2 1.45c5.68-10.72 12.67-24.6 13.53-26.31a.94.94 0 0 0 .11-.37c0-.17.05-.48.09-.87a8.59 8.59 0 0 0-2.41-.5z"/><path class="cls-2" d="m138.85 210.52-.49-.3a21 21 0 0 1-2.07-1.5l-.36-.29.23-.39c3.27-5.67 13.2-22.92 13.2-25.33 0-.19 0-.53.06-1v-.53h.53a9.17 9.17 0 0 1 2.57.49l.39.15-.13 1.29a1.57 1.57 0 0 1-.16.56c-1.29 2.56-8 15.86-13.54 26.31zm-1.53-2.35c.38.3.76.57 1.13.82 5.47-10.36 12-23.26 13.25-25.78a.55.55 0 0 0 .06-.18v-.45a9 9 0 0 0-1.35-.26v.39c.02 1.87-3.9 9.5-13.09 25.46z"/><path class="cls-2" d="m152.84 183-.65-.24a7.9 7.9 0 0 0-2.28-.43h-.54v-.54c.07-.95.22-2.45.42-4.37l.06-.48h3.57l-.06.59c-.23 2.15-.4 3.82-.5 4.82zm-2.31-1.7a10 10 0 0 1 1.38.25c.09-.89.22-2.11.37-3.58h-1.42c-.15 1.32-.26 2.45-.33 3.28zM121.8 189l-.35-.08a12.08 12.08 0 0 0-2.93-.25h-1.1l2.21-2.83a.53.53 0 0 0 .06-.1l.92-1.95 3.62.7-1.55 3.24c0 .08-.09.16-.14.24zm-2.19-1.39a11 11 0 0 1 1.73.18l.32-.44a.41.41 0 0 0 0-.09l1-2-1.44-.28-.56 1.19a1.92 1.92 0 0 1-.18.31z"/><path class="cls-2" d="m118.52 188.11-1.93 2.48-9.75 13-8.69 11.75a1.1 1.1 0 0 0 .78 1.74h.39a1.09 1.09 0 0 0 1-.42L117 194.85l4.59-6.47a12.19 12.19 0 0 0-3.07-.27z"/><path class="cls-2" d="M99.43 217.66h-.56a1.64 1.64 0 0 1-1.15-2.6l8.69-11.75 9.75-13 2.1-2.7h.26a12.82 12.82 0 0 1 3.18.29l.77.18-5 7.12-16.74 21.8a1.64 1.64 0 0 1-1.3.66zm19.35-29-1.78 2.26-9.74 13-8.68 11.75a.54.54 0 0 0-.07.56.56.56 0 0 0 .46.33h.39a.58.58 0 0 0 .51-.22l16.68-21.83 4.1-5.78a14.23 14.23 0 0 0-1.87-.08z"/><path class="cls-2" d="M249.28 167.88a3.62 3.62 0 0 1 1-.19 3.74 3.74 0 0 1 2 .46 4.67 4.67 0 0 0-2.4-.68 4.31 4.31 0 0 0-.95.12c-.41-.29-.85-.58-1.31-.88a3.63 3.63 0 0 1 3 .26 4.7 4.7 0 0 0-2.4-.68 4.4 4.4 0 0 0-1 .13l-.93-.57a3.92 3.92 0 0 1 .86-.15 3.77 3.77 0 0 1 2 .46 4.7 4.7 0 0 0-2.4-.68 3.87 3.87 0 0 0-.88.1c-.53-.32-1.09-.64-1.67-1a3.37 3.37 0 0 1 .91-.16 3.75 3.75 0 0 1 2 .45 4.59 4.59 0 0 0-2.4-.67 4.35 4.35 0 0 0-.95.11l-1.23-.68a3.55 3.55 0 0 1 .78-.12 3.77 3.77 0 0 1 2 .46 4.7 4.7 0 0 0-2.4-.68 6.17 6.17 0 0 0-.81.08l-1.13-.6a3.61 3.61 0 0 1 .81-.13 3.77 3.77 0 0 1 2 .46 4.71 4.71 0 0 0-2.41-.68 4.35 4.35 0 0 0-.85.09l-1.54-.8a4.12 4.12 0 0 1 .88-.15 3.79 3.79 0 0 1 2 .46 4.75 4.75 0 0 0-2.41-.68 4.94 4.94 0 0 0-.93.11l-1.33-.67a3.11 3.11 0 0 1 .8-.13 3.64 3.64 0 0 1 2 .46 4.49 4.49 0 0 0-3.27-.59l-.91-.45a3 3 0 0 1 .72-.11 3.77 3.77 0 0 1 2 .46 4.71 4.71 0 0 0-2.41-.68 3.81 3.81 0 0 0-.78.08l-1.27-.63a3.64 3.64 0 0 1 .79-.12 3.75 3.75 0 0 1 2 .45 4.59 4.59 0 0 0-2.4-.67 4.37 4.37 0 0 0-.86.09l-1.35-.65a3.12 3.12 0 0 1 .81-.13 3.7 3.7 0 0 1 2 .46 4.65 4.65 0 0 0-2.41-.68 3.87 3.87 0 0 0-.88.1l-1.22-.58a3.27 3.27 0 0 1 .75-.12 3.77 3.77 0 0 1 2 .46 4.61 4.61 0 0 0-2.4-.68 4.24 4.24 0 0 0-.84.09l-1.27-.6a3 3 0 0 1 .63-.1 3.74 3.74 0 0 1 2 .46 4.59 4.59 0 0 0-2.4-.67 4 4 0 0 0-.72.06l-1.33-.62a3.36 3.36 0 0 1 .68-.1 3.77 3.77 0 0 1 2 .46 4.71 4.71 0 0 0-2.41-.68 4.37 4.37 0 0 0-.76.07l-1.21-.55a3.92 3.92 0 0 1 .75-.12 3.77 3.77 0 0 1 2 .46 4.71 4.71 0 0 0-2.41-.68 5.15 5.15 0 0 0-.84.09l-1.31-.59a3.63 3.63 0 0 1 .89-.16 3.79 3.79 0 0 1 2 .46 4.71 4.71 0 0 0-2.41-.68 4.79 4.79 0 0 0-.69.06 1.08 1.08 0 0 1-.66-.1l-.47-.21a1.08 1.08 0 0 1-.62-1.22c.47-2.32 1-6.44-.42-8.65a17.35 17.35 0 0 0-4.2-4.09A1.1 1.1 0 0 1 216 138c2.91-3.88 4.65-12.6 4.36-14.69a5 5 0 0 0-.26-.86c3.55-11 6.58-21.73 5.64-24-1.48-3.56-7.8 5.49-11.17 10.75a1.1 1.1 0 0 1-1.86 0c-.11-.19-.18-.29-.18-.29a8.51 8.51 0 0 0-1-2h-.1c-1.91-2.07-6.83-3.54-12.59-3.53-5.11 0-9.55 1.18-11.82 2.89l-6.89.94H180l-32.8 2.7h-.09c-10.78 0-26.71.28-40.74 1.24l-5.7.44-1.34.12a1.41 1.41 0 0 0-.86 0 .58.58 0 0 1-.22.08c-16.76.5-22 5.83-21.84 7.17 0 .17.28.2.44.46 2.3 3.81 17.06 4.08 22.34 4.55 0 0 6.2.55 29.63-.25H134l.13-.12c7.3-.4 12.83-.77 14-1l-.37.24-1.16.67-.15.1a158.06 158.06 0 0 0-19.95 19.07c-5.41 6.25-9.59 11.72-10.46 12.86a1.09 1.09 0 0 0-.17.34c-.46 2-16.46 20.19-18.13 22.09a1 1 0 0 0-.22.37c-2.78 7.9 6 8.34 7.38 8.36a1 1 0 0 0 .34-.05 93.33 93.33 0 0 0 12.76-5.44 1.09 1.09 0 0 0 .53-1.41c-.43-1.06 0-3.06.2-3.87a1 1 0 0 1 .48-.67 5.37 5.37 0 0 1 3-.14v.82a1.14 1.14 0 0 1-.25.71l-.41.49a1.08 1.08 0 0 0-.25.86c.12.77.13 2.27-1.62 2.47a8.48 8.48 0 0 0 1.19-.07 1.1 1.1 0 0 1 1.16 1.55l-1.14 2.42 2.52.49 2.57-5.38a1.06 1.06 0 0 1 .63-.56 148.35 148.35 0 0 0 23.06-11 1.09 1.09 0 0 1 1.63 1.08c-.38 3.25-.71 6.12-1 8.4h2.49c.32-3.08.75-7.13 1.24-11.67a1.07 1.07 0 0 1 .51-.81c1.58-1 2.95-1.93 4.06-2.71 5.93-4.19 11.86-14.57 14.34-17.91.13 1.21.24 2.17.33 2.82.27 1.93 1 2.37 1.87 2a1.13 1.13 0 0 1 1.46.44c.31.56.54 1 .65 1.17a1.05 1.05 0 0 0 .25.3c.61.5 2.81 2.15 4.25 1 .89-.72 1.83-3.41 2.53-5.82a1.11 1.11 0 0 1 1.06-.8h.05l1.18 2c-3 5.39 3.08 6.71 4.28 6.24s1.53-2.86 4.58-4.47c1.08-.57 4.11-4 7.48-8.08a1.12 1.12 0 0 1 1.36-.27l.36.19a1.09 1.09 0 0 1 .42 1.56c-5.5 8.72-11.43 18-12.6 19.89a1.06 1.06 0 0 0-.17.72c.07.47.14 1 .22 1.59a23 23 0 0 1 3.65 1.61v-1.76c-.9-1.51 4.82-10.9 10.65-19.91a2.38 2.38 0 0 0 .19.68 1.1 1.1 0 0 1-.26 1.2c-1 1-2.47 3.68.58 9.51a1.15 1.15 0 0 1 .12.54l-.35 12.35a1.08 1.08 0 0 0 .06.4c1.14 3.26 16.83 48.24 16.19 55.42l.77-1.91v-.08l.68-2.18a1.11 1.11 0 0 0 0-.6c-1-3.89-11.6-43.81-13.91-48.63a1.13 1.13 0 0 1-.12-.47l-.27-10.36a6.75 6.75 0 0 0 1.2.93 1.1 1.1 0 0 1 .51.7l1 4.8a.36.36 0 0 0 0 .1c10.54 33.34 27.25 41.85 30.21 43.12a1.06 1.06 0 0 0 .89 0 8.82 8.82 0 0 0 1.83-1c.05-.62-.88-1.33-2.36-1.79a1.15 1.15 0 0 1-.25-.12 48 48 0 0 1-6.45-5 51.78 51.78 0 0 1-6.33-7.1c-2.62-3.4-6.16-8.24-10.19-14.52a1.09 1.09 0 0 1-.08-.15 121.57 121.57 0 0 1-5.79-15.35c-.34-1.13-.66-2.23-.95-3.32a1.86 1.86 0 0 0 .8-.48l2.26-4.58a1.07 1.07 0 0 1 .31-.39l.48-.37a1.09 1.09 0 0 1 1.43.08l1.74 1.71a5.71 5.71 0 0 0-.07 1.06 6 6 0 0 0 .28 1.74 6.31 6.31 0 0 1 0-1.77 6.66 6.66 0 0 1 .13-.72l.64.62a1.1 1.1 0 0 1 .32.88v.66a6.52 6.52 0 0 0 .29 1.75 6.4 6.4 0 0 1 0-1.78 5.86 5.86 0 0 1 .15-.81l.61.6a1.06 1.06 0 0 1 .31.88v.7a6.52 6.52 0 0 0 .29 1.75 6.4 6.4 0 0 1 0-1.78 8.62 8.62 0 0 1 .16-.85l.72.71a1.07 1.07 0 0 1 .31.88v.73a5.75 5.75 0 0 0 .29 1.75 6 6 0 0 1 0-1.77 6.26 6.26 0 0 1 .17-.88q.39.41.81.81a1.09 1.09 0 0 1 .31.87v.66a6 6 0 0 0 .28 1.74 6.72 6.72 0 0 1 0-1.77 5.65 5.65 0 0 1 .16-.8l.71.73a1.06 1.06 0 0 1 .32.86 4.14 4.14 0 0 0 0 .62 6.19 6.19 0 0 0 .28 1.75 6.4 6.4 0 0 1 0-1.78 7.31 7.31 0 0 1 .15-.76l.75.76a1.12 1.12 0 0 1 .31.87v.65a6.37 6.37 0 0 0 .29 1.74 6.31 6.31 0 0 1 0-1.77 5.15 5.15 0 0 1 .15-.78l.63.63a1.09 1.09 0 0 1 .3.87v.73a5.81 5.81 0 0 0 .29 1.75 6 6 0 0 1 0-1.78 5 5 0 0 1 .16-.85l.87.88a5.7 5.7 0 0 0-.1 1.16 5.75 5.75 0 0 0 .29 1.75 6.26 6.26 0 0 1 0-1.77 7.26 7.26 0 0 1 .16-.81l.8.82.3.86a4.7 4.7 0 0 0 0 .66 6.19 6.19 0 0 0 .28 1.75 6.4 6.4 0 0 1 0-1.78 7.73 7.73 0 0 1 .15-.78l1.19 1.25a7.35 7.35 0 0 0-.11 1.25 6.15 6.15 0 0 0-.07 1.8 6.4 6.4 0 0 1 0-1.78 6.55 6.55 0 0 1 .17-.88l.53.58a1 1 0 0 1 .28.84 7.34 7.34 0 0 0-.05.85 6 6 0 0 0 .29 1.74 6.31 6.31 0 0 1 0-1.77 6.82 6.82 0 0 1 .18-.92l1.1 1.24a5.34 5.34 0 0 0-.1 1.19 6 6 0 0 0 .28 1.74 6.31 6.31 0 0 1 0-1.77 7.64 7.64 0 0 1 .15-.8c.41.47.82 1 1.24 1.48a7.13 7.13 0 0 0-.11 1.24 6.52 6.52 0 0 0 .29 1.75 6.4 6.4 0 0 1 0-1.78 7.88 7.88 0 0 1 .16-.84l.43.53.43.54a6.85 6.85 0 0 0-.09 1.09 6.52 6.52 0 0 0 .29 1.75 6.4 6.4 0 0 1 0-1.78 6.15 6.15 0 0 1 .12-.69l.64.82a1.05 1.05 0 0 1 .22.76 7 7 0 0 0-.05.83 6.37 6.37 0 0 0 .29 1.74 6.31 6.31 0 0 1 0-1.77 5.7 5.7 0 0 1 .15-.8l.87 1.17 1.1 1.62a7.27 7.27 0 0 0-1.5-3.14 3.55 3.55 0 0 1 1 .16 3.66 3.66 0 0 1 1.69 1.1 4.56 4.56 0 0 0-2-1.46 4.83 4.83 0 0 0-.94-.22c-.28-.4-.6-.83-.94-1.27a3.5 3.5 0 0 1 1 .16 3.85 3.85 0 0 1 1.7 1.1 4.63 4.63 0 0 0-3.06-1.69l-.69-.86a3.67 3.67 0 0 1 .86.16 3.85 3.85 0 0 1 1.7 1.1 4.49 4.49 0 0 0-2.9-1.67c-.39-.48-.81-1-1.25-1.48a3.23 3.23 0 0 1 .91.16 3.76 3.76 0 0 1 1.7 1.1 4.67 4.67 0 0 0-2-1.46 4.75 4.75 0 0 0-.93-.22q-.45-.52-.93-1a3.47 3.47 0 0 1 .77.15 3.66 3.66 0 0 1 1.69 1.1 4.69 4.69 0 0 0-2-1.46 4.58 4.58 0 0 0-.79-.2l-.86-1a3.65 3.65 0 0 1 2.49 1.25 4.62 4.62 0 0 0-2-1.46 5.2 5.2 0 0 0-.83-.2c-.39-.43-.79-.85-1.19-1.28a3.31 3.31 0 0 1 .87.15 3.93 3.93 0 0 1 1.7 1.1 4.75 4.75 0 0 0-2-1.45 4.51 4.51 0 0 0-.92-.22l-1-1.09a3.71 3.71 0 0 1 .8.15 3.89 3.89 0 0 1 1.69 1.1 4.75 4.75 0 0 0-2-1.45 4.29 4.29 0 0 0-.84-.21l-.71-.74a3.41 3.41 0 0 1 .71.14 3.8 3.8 0 0 1 1.69 1.1 4.75 4.75 0 0 0-2-1.46 4.85 4.85 0 0 0-.75-.19l-1-1a3.55 3.55 0 0 1 .78.15 3.76 3.76 0 0 1 1.7 1.1 4.67 4.67 0 0 0-2-1.46 4.48 4.48 0 0 0-.84-.21l-1-1.07a3.94 3.94 0 0 1 .8.15 3.86 3.86 0 0 1 1.69 1.1 4.67 4.67 0 0 0-2-1.45 3.46 3.46 0 0 0-.86-.21l-1-1a3.21 3.21 0 0 1 .75.15 3.72 3.72 0 0 1 1.69 1.1 4.67 4.67 0 0 0-2-1.46 4.77 4.77 0 0 0-.81-.2l-1-1a4.43 4.43 0 0 1 .63.13 3.89 3.89 0 0 1 1.69 1.1 4.77 4.77 0 0 0-2-1.45 4.64 4.64 0 0 0-.7-.19l-1-1a4.73 4.73 0 0 1 .67.14 3.74 3.74 0 0 1 1.69 1.1 4.64 4.64 0 0 0-2-1.46 5.16 5.16 0 0 0-.75-.19l-.95-.94a4.85 4.85 0 0 1 .74.15 3.74 3.74 0 0 1 1.69 1.1 4.7 4.7 0 0 0-2-1.46 5.11 5.11 0 0 0-.82-.2l-1-1a3.43 3.43 0 0 1 .88.16 3.76 3.76 0 0 1 1.7 1.1 4.67 4.67 0 0 0-2-1.46 4.13 4.13 0 0 0-.75-.19 1.31 1.31 0 0 1-.43-.16l-1.36-.87a1.1 1.1 0 0 1-.08-1.8l.74-.56v-.13l1.56.71a6.08 6.08 0 0 0 .28 1 6.16 6.16 0 0 0 .85 1.55 6.37 6.37 0 0 1-.62-1.66 7.37 7.37 0 0 1-.12-.73l.8.37a1.08 1.08 0 0 1 .6.72 6.46 6.46 0 0 0 .2.63 6 6 0 0 0 .85 1.55 6.23 6.23 0 0 1-.62-1.66 5.41 5.41 0 0 1-.12-.82l.76.35a1.09 1.09 0 0 1 .59.73c.06.21.12.43.21.67a5.9 5.9 0 0 0 .85 1.54 6.1 6.1 0 0 1-.62-1.66 5.68 5.68 0 0 1-.13-.85l.91.42a1.07 1.07 0 0 1 .59.72 5.47 5.47 0 0 0 .21.7 6 6 0 0 0 .86 1.55 6.42 6.42 0 0 1-.63-1.66 6.33 6.33 0 0 1-.12-.88l1 .48a1.11 1.11 0 0 1 .6.72c0 .19.11.4.19.62a5.9 5.9 0 0 0 .85 1.54 6.1 6.1 0 0 1-.62-1.66 6.21 6.21 0 0 1-.12-.8l.91.44a1.1 1.1 0 0 1 .59.71 5.71 5.71 0 0 0 .19.59 5.62 5.62 0 0 0 .85 1.54 6.1 6.1 0 0 1-.62-1.66 5.66 5.66 0 0 1-.12-.76l1 .46a1.09 1.09 0 0 1 .58.71c.05.19.11.4.19.62a6.4 6.4 0 0 0 .85 1.54 6.84 6.84 0 0 1-.62-1.66c-.06-.28-.09-.54-.12-.79l.8.39a1.07 1.07 0 0 1 .59.71 5.47 5.47 0 0 0 .21.7 5.9 5.9 0 0 0 .85 1.54 6.1 6.1 0 0 1-.62-1.66 6 6 0 0 1-.13-.86l1.11.54a5.46 5.46 0 0 0 .3 1.13 5.62 5.62 0 0 0 .85 1.54 6.42 6.42 0 0 1-.63-1.66 6.63 6.63 0 0 1-.12-.81l1 .5.57.71a4.54 4.54 0 0 0 .2.63 5.86 5.86 0 0 0 .85 1.55 6.37 6.37 0 0 1-.62-1.66 5 5 0 0 1-.12-.8l1.54.78a5.67 5.67 0 0 0 .31 1.21 5.9 5.9 0 0 0 .85 1.54 6.33 6.33 0 0 1-.75-2.54l.68.36a1.05 1.05 0 0 1 .55.7 6.5 6.5 0 0 0 .24.81 6.16 6.16 0 0 0 .85 1.55 6.37 6.37 0 0 1-.62-1.66 7.12 7.12 0 0 1-.13-.93l1.44.79a7 7 0 0 0 .3 1.15 6.3 6.3 0 0 0 .85 1.55 6.45 6.45 0 0 1-.62-1.66 6.63 6.63 0 0 1-.12-.81l1.66 1a6.34 6.34 0 0 0 .31 1.21 6.21 6.21 0 0 0 .85 1.54 6.45 6.45 0 0 1-.62-1.66 5.47 5.47 0 0 1-.12-.84l.58.35.58.36a5.79 5.79 0 0 0 .28 1.06 6.21 6.21 0 0 0 .85 1.54 6.45 6.45 0 0 1-.62-1.66 6.15 6.15 0 0 1-.11-.69l.87.55a1.05 1.05 0 0 1 .46.65 7.51 7.51 0 0 0 .23.79 6.5 6.5 0 0 0 .85 1.55 7.18 7.18 0 0 1-.62-1.66 6.63 6.63 0 0 1-.12-.81l1.21.81 1.57 1.14a7.29 7.29 0 0 0-3.23-2.54zm-145.85 12.71c-1.36-1 0-3.78 0-3.78l.43-.43h.92l2 1.28v1.46s-1.99 2.41-3.35 1.47zm8-14.87 3.81-4.56 1.06 4.29-3 2.84zm3.49 8.75c-3.65-2.31 0-4.29 0-4.29l4.41.42v1.71s-.73 4.47-4.33 2.16zm7.84-25.26.63-1.63 1.91-.39V153s-1.26 2.58-3.13 1.47.62-5.26.62-5.26zm6.12 8.15-.76 3.95-3.72 2.49s-6.64-4.28-1-6.43 5.51-.01 5.51-.01zm6.74-23.63c1.32-2.42 2.64 4.17 2.64 4.17s-1.35 3.81-4.57 4.16 1.96-8.33 1.96-8.33zm-1.33 14.94.67-3.52 4.17-2.12-.41 3.32L137 150c-1.3 1.37-2.68-1.33-2.68-1.33zm8.35 22.92s-3.85 2.25-4.91 1.64 0-1.63 0-1.63 4-2 4.92-2.24.02 2.23.02 2.23zm5-41.66c-2-2.49 3.8-6.1 3.8-6.1h1.27l1.59 3.17-1.53 2.49s-3.04 2.93-5.08.44zm5.1 6.86a7.12 7.12 0 0 1-3.48 0c-1.53-.51-.51-2.92-.51-2.92l4.49-.71 1 1.3zM167 149.13h-2.88l3.81-4 .67.51v2.15zm13.42-3-.52-.75h.66c-.04.5-.09.78-.09.78zm42.21-40.4-4.29 13.15c-.85-1.59-1.87-3.35-2.81-5z"/><path class="cls-2" d="m222.48 228.38.32-3.59c.5-5.67-9.93-37.36-16.17-55.2a1.85 1.85 0 0 1-.09-.58l.42-12.46a.58.58 0 0 0-.07-.28c-2-3.85-2.14-6.43-1.67-8.09-8 12.61-8.82 15.51-8.55 16.09l.08.28v2.59l-.78-.35c-.39-.17-.77-.37-1.16-.57a12 12 0 0 0-2.4-1l-.35-.09v-.35c-.08-.58-.15-1.12-.22-1.6a1.64 1.64 0 0 1 .24-1.08c1.34-2.11 7.18-11.29 12.61-19.89a.53.53 0 0 0 .07-.44.55.55 0 0 0-.29-.36l-.36-.19a.57.57 0 0 0-.7.15c-5.53 6.65-7 7.87-7.64 8.2a8.24 8.24 0 0 0-3.15 3 3.58 3.58 0 0 1-1.49 1.5 5.58 5.58 0 0 1-5-1.65c-.8-.92-1.46-2.54-.13-5.07l-.84-1.4a.55.55 0 0 0-.32.36c-1.48 5.09-2.4 5.84-2.71 6.09-1.76 1.43-4.22-.38-4.93-1a1.53 1.53 0 0 1-.38-.46l-.64-1.16a.59.59 0 0 0-.78-.22 1.59 1.59 0 0 1-1.45 0c-.61-.33-1-1.12-1.17-2.4-.06-.37-.11-.85-.18-1.42l-1.38 2.07c-3 4.59-7.61 11.52-12.27 14.81-1.13.8-2.51 1.72-4.09 2.72a.59.59 0 0 0-.26.42c-.49 4.53-.91 8.59-1.23 11.66v.48h-3.58l.06-.59c.25-2.28.58-5.16 1-8.4a.57.57 0 0 0-.25-.54.54.54 0 0 0-.58 0c-6 3.47-15.6 8.45-23.16 11.06a.48.48 0 0 0-.31.28l-2.75 5.76-3.61-.7 1.43-3a.53.53 0 0 0 0-.56.57.57 0 0 0-.55-.24 10 10 0 0 1-1.27.08v-1.07a1.3 1.3 0 0 0 .94-.45 2 2 0 0 0 .21-1.41 1.61 1.61 0 0 1 .37-1.29l.4-.48a.54.54 0 0 0 .14-.36v-.38a4.13 4.13 0 0 0-2.21.16.54.54 0 0 0-.22.33 6.81 6.81 0 0 0-.22 3.54 1.64 1.64 0 0 1-.79 2.09 96.46 96.46 0 0 1-12.82 5.46 1.51 1.51 0 0 1-.5.07c-1.28 0-5.62-.3-7.55-3.07-1.07-1.55-1.18-3.57-.32-6a1.69 1.69 0 0 1 .32-.55c8.73-9.91 17.72-20.6 18-21.85a1.31 1.31 0 0 1 .27-.54c.78-1 5-6.56 10.47-12.89a159 159 0 0 1 19.5-18.71h-.08l.34-.22h.06c-2.4.19-6.41.44-11.63.73l-.15.11h-5.32c-23 .78-29.42.27-29.67.24-.84-.07-1.9-.14-3.12-.22-8.88-.57-17.72-1.4-19.64-4.58a.32.32 0 0 0-.12-.1.83.83 0 0 1-.39-.57 2.15 2.15 0 0 1 .67-1.58c.8-1 5.61-5.72 21.68-6.19a1.79 1.79 0 0 1 1.15-.11l1.24-.12 5.71-.44c14-1 29.91-1.2 40.78-1.24l32.85-2.7 6.88-.93c2.49-1.76 7-2.84 11.95-2.85h.05c5.63 0 10.59 1.37 12.77 3.52h.06l.25.24a9.17 9.17 0 0 1 1.05 2.07l.15.24a.55.55 0 0 0 .48.27.56.56 0 0 0 .47-.25c5-7.84 8.59-11.82 10.61-11.82h.13a1.63 1.63 0 0 1 1.37 1.13c.32.76 1.27 3-5.56 24.19a3.94 3.94 0 0 1 .22.8c.3 2.1-1.43 11-4.46 15.08a.61.61 0 0 0-.12.45.51.51 0 0 0 .22.36 17.36 17.36 0 0 1 4.34 4.24c1.47 2.25 1.08 6.16.49 9a.56.56 0 0 0 .32.63l.47.22a.76.76 0 0 0 .35.06 3 3 0 0 1 .81-.07 5.09 5.09 0 0 1 2.65.75l-.11.2a5.14 5.14 0 0 1 1.82.68l-.08.15a5.07 5.07 0 0 1 1.75.67l-.1.17a5.37 5.37 0 0 1 1.92.7l-.07.12a5.27 5.27 0 0 1 2 .71l-.08.13a5 5 0 0 1 1.87.69l-.12.2a5.34 5.34 0 0 1 2 .7l-.12.22a5 5 0 0 1 1.82.68v.06a5.22 5.22 0 0 1 1.54.63l-.12.2a5.14 5.14 0 0 1 2 .71l-.2.35a5.1 5.1 0 0 1 2.16.73l-.12.21a5.31 5.31 0 0 1 1.69.66l-.11.2a5.5 5.5 0 0 1 2 .7l-.29.51a5.28 5.28 0 0 1 2.37.75l-.1.16a5.25 5.25 0 0 1 1.65.65l-.28.48a5.28 5.28 0 0 1 2 .7l-.53.93a3.19 3.19 0 0 0-1.36-.39 5.22 5.22 0 0 1 1.63 1.9l.63 1.68-3-2.2-.12-.08a5.36 5.36 0 0 0 .45 1.05l-.9.58a6.67 6.67 0 0 1-.93-1.67l-.76.49a7.5 7.5 0 0 1-.77-1.31l-.78.5a6.7 6.7 0 0 1-.92-1.68 6.53 6.53 0 0 1-.3-1.07l-.43-.25a5.53 5.53 0 0 0 .47 1.16l-.89.58a6.43 6.43 0 0 1-.93-1.68 6.6 6.6 0 0 1-.28-1l-.26-.15a5.47 5.47 0 0 0 .52 1.34l-.9.58a6.46 6.46 0 0 1-.8-1.37l-.77.5a6.56 6.56 0 0 1-.92-1.68 6.3 6.3 0 0 1-.3-1.05l-.34-.17a5.75 5.75 0 0 0 .5 1.24l-.9.58a6.91 6.91 0 0 1-.93-1.68q-.1-.3-.18-.57l-.4-.5a5.74 5.74 0 0 0 .51 1.26l-.9.58a6.7 6.7 0 0 1-1-1.16l-.79.51a6.4 6.4 0 0 1-.83-1.46l-.87.57a6.79 6.79 0 0 1-.93-1.69c-.09-.23-.15-.46-.21-.67a.56.56 0 0 0-.29-.36 5.55 5.55 0 0 0 .5 1.24l-.9.58a6.51 6.51 0 0 1-1.13-2.33.57.57 0 0 0-.28-.35 6.1 6.1 0 0 0 .51 1.28l-.9.58a6.39 6.39 0 0 1-.92-1.68 5.74 5.74 0 0 1-.21-.68.6.6 0 0 0-.31-.37l-.11-.05a5.59 5.59 0 0 0 .54 1.37l-.9.58a6.73 6.73 0 0 1-.93-1.68 7.1 7.1 0 0 1-.23-.76.57.57 0 0 0-.29-.36 6 6 0 0 0 .53 1.35l-.9.58a6.79 6.79 0 0 1-.8-1.38l-.85.55.31.36-.17.15a5.24 5.24 0 0 1 1.49 1.26l-.13.11a5.4 5.4 0 0 1 1.43 1.23l-.16.13a5.5 5.5 0 0 1 1.58 1.31l-.11.1a5.17 5.17 0 0 1 1.64 1.34l-.12.09a5.4 5.4 0 0 1 1.53 1.29l-.18.16a5 5 0 0 1 1.62 1.33l-.19.16a5.31 5.31 0 0 1 1.5 1.26h-.06a5.44 5.44 0 0 1 1.25 1.12l-.18.15a5.19 5.19 0 0 1 1.66 1.36l-.31.26a5.22 5.22 0 0 1 1.8 1.42l-.19.16a5.24 5.24 0 0 1 1.38 1.2l-.18.15a5.13 5.13 0 0 1 1.61 1.33l-.45.38a5.23 5.23 0 0 1 2 1.51l-.14.12A5.49 5.49 0 0 1 244 179l-.42.36a5.27 5.27 0 0 1 1.61 1.33l-.82.7a3.18 3.18 0 0 0-1.14-.84 5.34 5.34 0 0 1 .9 2.35v1.8l-2.13-3.14a.76.76 0 0 0-.08-.11 6.18 6.18 0 0 0 .07 1.13l-1 .25a6.51 6.51 0 0 1-.31-1.9l-.88.21a6.4 6.4 0 0 1-.29-1.51l-.9.22a6.51 6.51 0 0 1-.31-1.9 6.77 6.77 0 0 1 .07-1.1c-.11-.13-.21-.27-.32-.39a5.27 5.27 0 0 0 .06 1.25l-1 .25a6.51 6.51 0 0 1-.31-1.9 7.27 7.27 0 0 1 .07-1l-.2-.22a5.73 5.73 0 0 0 0 1.43l-1 .25a6.5 6.5 0 0 1-.3-1.57l-.89.21a6.66 6.66 0 0 1-.24-3l-.27-.28a5.84 5.84 0 0 0 .06 1.32l-1 .25a6.41 6.41 0 0 1-.31-1.9 5.82 5.82 0 0 1 0-.6l-.21-.6a5.46 5.46 0 0 0 .06 1.34l-1 .25a7.24 7.24 0 0 1-.28-1.37l-.9.21a6.32 6.32 0 0 1-.31-1.66l-1 .24a6.51 6.51 0 0 1-.31-1.9 5.31 5.31 0 0 1 0-.71.6.6 0 0 0-.16-.44 5.84 5.84 0 0 0 .06 1.32l-1 .25a6.74 6.74 0 0 1-.31-1.9v-.67a.57.57 0 0 0-.15-.43 5.74 5.74 0 0 0 .05 1.37l-1 .24a6.74 6.74 0 0 1-.31-1.9v-.71a.56.56 0 0 0-.16-.44l-.09-.09a5.57 5.57 0 0 0 0 1.47l-1 .24a6.41 6.41 0 0 1-.31-1.9 6.87 6.87 0 0 1 0-.8.55.55 0 0 0-.15-.43 5.79 5.79 0 0 0 .05 1.44l-1 .25a6 6 0 0 1-.3-1.58l-1 .24a6.66 6.66 0 0 1-.3-1.66l-1 .24a6.41 6.41 0 0 1-.31-1.9 6.29 6.29 0 0 1 0-.86l-1.55-1.52a.54.54 0 0 0-.73 0l-.48.37a.58.58 0 0 0-.16.19l-2.33 4.7a2 2 0 0 1-.57.44c.25.94.53 1.89.82 2.85a122.37 122.37 0 0 0 5.76 15.29c3.33 5.2 6.75 10.07 10.21 14.56a52.08 52.08 0 0 0 6.27 7 46.79 46.79 0 0 0 6.38 4.93.34.34 0 0 0 .12.06c1.79.56 2.81 1.44 2.73 2.35 0 .34-.13.5-2.13 1.44a1.62 1.62 0 0 1-1.33 0c-3.24-1.4-20-10-30.51-43.45v-.15l-1-4.8a.53.53 0 0 0-.25-.36 3.61 3.61 0 0 1-.36-.23l.24 9.18a.61.61 0 0 0 .06.25c2.34 4.89 12.76 44.26 13.94 48.73a1.53 1.53 0 0 1 0 .9l-.72 2.3zM207.25 143l.15 1.54a1.34 1.34 0 0 0 .14.51 1.62 1.62 0 0 1-.38 1.79c-1 1-2.18 3.43.68 8.89a1.69 1.69 0 0 1 .19.81l-.41 12.46a.46.46 0 0 0 0 .2c1.59 4.52 14.44 41.47 16.08 53.14l.58-1.87a.54.54 0 0 0 0-.31c-.47-1.78-11.54-43.65-13.87-48.53a1.77 1.77 0 0 1-.18-.69L210 159.3l.95.92a5.31 5.31 0 0 0 1.09.85 1.62 1.62 0 0 1 .76 1.06l1 4.79c10.43 33 26.75 41.49 29.92 42.85a.54.54 0 0 0 .45 0c.76-.36 1.21-.59 1.45-.73a3.82 3.82 0 0 0-1.91-1.07 1.38 1.38 0 0 1-.39-.18 48.78 48.78 0 0 1-6.51-5 53.34 53.34 0 0 1-6.4-7.17c-3.48-4.52-6.91-9.42-10.21-14.56a1.13 1.13 0 0 1-.12-.21 123.08 123.08 0 0 1-5.82-15.43c-.34-1.13-.66-2.24-.95-3.33l-.14-.5.5-.15a1.28 1.28 0 0 0 .52-.29l2.22-4.5a1.59 1.59 0 0 1 .46-.57l.48-.37a1.64 1.64 0 0 1 1.37-.3 1.66 1.66 0 0 1 .64-1.25l.59-.46.15-.57.33.15a1.67 1.67 0 0 1-.14-1.06c.45-2.2 1-6.2-.34-8.24a16.55 16.55 0 0 0-4.07-4 1.62 1.62 0 0 1-.65-1.07 1.68 1.68 0 0 1 .32-1.26c2.77-3.69 4.54-12.25 4.25-14.28a2.84 2.84 0 0 0-.22-.74l-.07-.18.06-.18c5.89-18.22 6.07-22.62 5.65-23.63-.18-.45-.39-.46-.48-.47h-.06c-1.18 0-4.33 3-9.68 11.31a1.68 1.68 0 0 1-1.38.75 1.62 1.62 0 0 1-1.39-.78L212 109a8.06 8.06 0 0 0-.82-1.7l-.16-.11c-1.86-2-6.74-3.35-12.15-3.35h-.05c-4.83 0-9.23 1.07-11.5 2.77l-.6.45-.11-.33-6.45.88-33 2.71c-10.85 0-26.72.29-40.7 1.24l-7.13.57h-.1a.84.84 0 0 0-.52 0 1.06 1.06 0 0 1-.4.11c-15.19.45-20 4.79-20.76 5.65a2.67 2.67 0 0 0-.54.79 1.3 1.3 0 0 1 .35.38c1.79 3 12.85 3.68 18.79 4.06 1.23.08 2.3.15 3.14.23.25 0 6.56.53 29.56-.25h4.95l.29-.08c7.62-.42 12.84-.78 14-1l2.66-.44-.89.55h.14l-1.92 1.13-1.16.66c-2.8 2.28-6.34 5.25-10.16 8.86 1 .67 1.71 3.33 2 5v.15l-.05.13c-.06.17-1.5 4.14-5 4.53a1.35 1.35 0 0 1-1.4-.57c-.81-1.26.58-4.44 1.75-6.67-2.35 2.33-4.77 4.88-7.17 7.65-1.19 1.38-2.32 2.72-3.37 4l2.28-.46v6.58l-.06.11a4 4 0 0 1-2.07 1.95 2.24 2.24 0 0 1-1.82-.26c-2.2-1.32 0-5.31.38-5.93l.3-.8c-3.24 3.94-5.52 6.93-6.08 7.67l-.08.12c-.47 2-14.08 17.61-18.25 22.33a.49.49 0 0 0-.11.2c-.74 2.09-.68 3.79.19 5 1.68 2.41 5.86 2.59 6.69 2.6a.37.37 0 0 0 .18 0 95.53 95.53 0 0 0 12.64-5.39.58.58 0 0 0 .28-.73c-.48-1.15-.1-3.13.17-4.2a1.56 1.56 0 0 1 .75-1 5.73 5.73 0 0 1 3.37-.19l.42.1v1.24a1.7 1.7 0 0 1-.38 1.06l-.41.48a.54.54 0 0 0-.13.43 3.09 3.09 0 0 1-.28 2 1.71 1.71 0 0 1 .81.6 1.59 1.59 0 0 1 .15 1.64l-.84 1.8 1.44.28 2.39-5a1.62 1.62 0 0 1 .93-.83 109.25 109.25 0 0 0 11.09-4.68h-.06a1.37 1.37 0 0 1-.74-1 2 2 0 0 1 .63-1.47l.13-.09c.42-.21 4.06-2 5-2.28a.8.8 0 0 1 .85.21 2 2 0 0 1 .13 1.68c2-1.06 4-2.17 5.93-3.28a1.58 1.58 0 0 1 1.7 0 1.61 1.61 0 0 1 .73 1.57c-.35 3-.65 5.61-.89 7.79h1.42c.31-3 .72-6.88 1.19-11.18a1.61 1.61 0 0 1 .75-1.21c1.56-1 2.92-1.91 4-2.7 4.49-3.17 9-10 12-14.52.88-1.34 1.65-2.49 2.22-3.27l.83-1.1.14 1.37c.12 1.2.23 2.15.32 2.79.18 1.24.5 1.54.63 1.62s.17.09.49-.05a1.66 1.66 0 0 1 2.15.67l.65 1.17a.61.61 0 0 0 .12.15c.4.33 2.42 1.9 3.58 1 .29-.24 1.1-1.26 2.35-5.56a1.65 1.65 0 0 1 1.56-1.19h.31l.21.26 1.35 2.24-.16.27c-1 1.73-1 3.12-.14 4.13a4.66 4.66 0 0 0 3.75 1.35c.32-.12.62-.56 1-1.11a9.22 9.22 0 0 1 3.53-3.34c.85-.45 3.31-3.12 7.32-7.94a1.65 1.65 0 0 1 2-.41l.37.19a1.66 1.66 0 0 1 .82 1 1.63 1.63 0 0 1-.19 1.29c-5.44 8.61-11.27 17.79-12.56 19.82a.61.61 0 0 0-.13.44c0 .38.1.8.17 1.24a14.35 14.35 0 0 1 2.26 1l.35.17v-.78c-.48-1.23.73-4.87 10.73-20.33zm-69.17 29a.86.86 0 0 0-.26.51c0 .09.11.16.2.21.41.24 2.35-.47 4.21-1.54a6.16 6.16 0 0 0 .31-1.26c-.99.42-3.42 1.6-4.46 2.08zm91.92-4.22a6.15 6.15 0 0 0 0 1 6.71 6.71 0 0 1 0-.67.58.58 0 0 0 0-.33zm3.92-7a6.26 6.26 0 0 0 .34.91 4.78 4.78 0 0 1-.26-.69.58.58 0 0 0-.13-.23zm-11-.11a5.65 5.65 0 0 0 0 .92v-.66a.46.46 0 0 0-.07-.27zm-1.32-1.33a5.55 5.55 0 0 0 0 1 4 4 0 0 1 0-.7.52.52 0 0 0-.07-.31zm1.46-2.07a5.11 5.11 0 0 1 1.36 1 7 7 0 0 1-.76-1.36zm1.83-.77a5.92 5.92 0 0 0 .32.89c-.08-.23-.15-.45-.2-.66a.57.57 0 0 0-.19-.24zm-4.21-2-.6.46a.56.56 0 0 0 0 .92l1.36.87a1 1 0 0 0 .23.08 4.94 4.94 0 0 1 .78.19 5.94 5.94 0 0 1-.63-1.26 4.94 4.94 0 0 1-.25-.83zm2.52 1.19a6.56 6.56 0 0 0 .37 1c-.09-.24-.16-.47-.22-.69a.46.46 0 0 0-.22-.31zM123.81 148l-.56 1.44c-.71 1.2-1.83 3.88-.77 4.51a1.17 1.17 0 0 0 1 .16 2.9 2.9 0 0 0 1.37-1.3v-5zm12.45-14.29a2.29 2.29 0 0 1-.13.24c-1.76 3-3.34 6.66-2.83 7.45 0 0 .07.12.38.08 2.52-.27 3.81-3 4.07-3.68-.43-1.91-1.09-3.74-1.49-4.05zm-32.14 47.59a1.73 1.73 0 0 1-1-.31c-1.68-1.17-.34-4.12-.18-4.45l.1-.15.58-.59h1.31l2.34 1.53v1.94l-.12.15a4.65 4.65 0 0 1-3.03 1.92zm-.25-4.22c-.31.69-.9 2.49-.13 3s1.93-.63 2.46-1.22v-1l-1.59-1h-.54zm13-1.45a4.16 4.16 0 0 1-2.19-.75c-1.27-.81-1.9-1.7-1.87-2.66 0-1.53 1.82-2.52 1.9-2.56l.14-.07 5.06.48v2.2c0 .19-.42 2.43-2 3.15a2.52 2.52 0 0 1-1.06.25zm-1.78-4.94c-.43.26-1.19.88-1.21 1.57s.74 1.31 1.38 1.72a2.41 2.41 0 0 0 2.19.46 3.33 3.33 0 0 0 1.4-2.26v-1.13zm-1.83-1.63-2.46-3.41 4.75-5.69 1.4 5.62zm-1.1-3.36 1.26 1.74 2.33-2.21-.73-3zm12.29-1.29-.29-.2c-.39-.24-3.75-2.48-3.51-4.8.12-1.1 1-2 2.61-2.58 2.86-1.1 4.71-1.29 5.65-.59a1.35 1.35 0 0 1 .56 1.12v.06l-.8 4.17zm2.94-7.5a11 11 0 0 0-3.75.92c-1.2.46-1.85 1-1.92 1.69-.13 1.28 1.72 2.88 2.73 3.6l3.24-2.17.7-3.67a.27.27 0 0 0-.15-.2 1.53 1.53 0 0 0-.87-.08zm8.87-6H136c-1.2-.19-2.07-1.83-2.17-2l-.08-.17.76-4 5.29-2.69-.57 4.48-1.84 3.84a1.61 1.61 0 0 1-1.15.57zm-1.36-2.35c.28.46.83 1.21 1.3 1.28a.49.49 0 0 0 .4-.15l1.65-3.52.28-2.23-3 1.54zm28 1.09 5-5.3 1.28 1V148l-1.94 1.67zm5.12-3.86-2.63 2.78h1.44l1.27-1.09v-1.63zm12.73 1.73-1.85-2.69h2.35l-.13.64c-.09.45-.14.73-.14.73zm-29.89-10a5.55 5.55 0 0 1-1.74-.25 1.68 1.68 0 0 1-1-.91 3.93 3.93 0 0 1 .18-2.73l.12-.27 5.1-.81 1.45 1.85-1.85 2.82-.2.05a8.3 8.3 0 0 1-2.04.29zm-1.69-3.2a2.59 2.59 0 0 0-.09 1.6.58.58 0 0 0 .38.33 6.33 6.33 0 0 0 3 0l1.19-1.82-.59-.76zm.48-2.89h-.18a3.07 3.07 0 0 1-2.22-1.2 2.32 2.32 0 0 1-.51-1.93c.4-2.44 4.28-4.87 4.45-5l.13-.08h1.76l1.8 3.74-1.75 2.85a5.84 5.84 0 0 1-3.46 1.66zm2-7.11c-1.09.71-3.58 2.59-3.84 4.16a1.26 1.26 0 0 0 .29 1.07 2 2 0 0 0 1.45.8 4.36 4.36 0 0 0 2.8-1.24l1.34-2.18-1.26-2.61zm66.86-4.09-.6-1.11c-.73-1.37-1.67-3-2.79-4.94l-.2-.33L224 103.4zm-2.27-6.23c.76 1.31 1.44 2.49 2 3.55l3.09-9.44z"/><path class="cls-2" d="M200.34 198.89a145.43 145.43 0 0 1-4-28.44c-1-.48-2.12-.85-3.14-1.36 1.59 10.41 4.4 27.08 5.52 33.65.94.29 1.88.57 2.82.81z"/><path class="cls-2" d="m202.32 204.28-.88-.21c-.85-.21-1.76-.47-2.86-.82l-.31-.1-.05-.32c-1.13-6.65-3.92-23.22-5.52-33.66l-.15-1 .93.47c.57.29 1.2.55 1.8.79.44.18.88.36 1.32.56l.29.13v.33a142.35 142.35 0 0 0 4 28.33l1.23 4.66zm-3.1-2c.58.18 1.1.34 1.6.47-.34-1.25-.67-2.51-1-3.77a143.54 143.54 0 0 1-4-28.22l-1-.41-1-.39c1.68 10.32 4.28 25.74 5.4 32.36z"/><path class="cls-2" d="M203.32 208h-4.13l-.19-.85c-.1-.48-.2-1-.31-1.46l-.62-3.68.84.26c1.07.35 2 .6 2.79.8l.31.08.08.31c.34 1.29.69 2.58 1 3.86zm-3.27-1.07h1.86l-.78-2.89-1.71-.48.33 1.93z"/><path class="cls-2" d="m217.42 237.39-.51-.8a1.18 1.18 0 0 0-.29-.3c-6.5-4.41-10.48-16.06-14-28.88h-3c6.06 28.11 15.39 31.08 16.16 31.87.48.48 1.12-.08 1.56-.6a1.11 1.11 0 0 0 .08-1.29z"/><path class="cls-2" d="M216.2 240a1.12 1.12 0 0 1-.8-.34 2.47 2.47 0 0 0-.38-.25c-6.92-4.25-12.28-15-15.92-31.89l-.14-.64H203l.11.39c3.38 12.28 7.39 24.24 13.79 28.58a1.48 1.48 0 0 1 .44.46l.51.79a1.64 1.64 0 0 1-.12 1.92 2.25 2.25 0 0 1-1.5 1zm-15.91-32c2.5 11.32 7.15 25.55 15.29 30.54a2.85 2.85 0 0 1 .58.41c.08 0 .33-.05.76-.56a.56.56 0 0 0 0-.67l-.5-.79a.67.67 0 0 0-.15-.14c-6.25-4.25-10.17-14.58-14.1-28.79zM197 171.3l-.8-.37c-.42-.19-.85-.36-1.28-.54-.62-.25-1.26-.51-1.88-.82l-.24-.13-.05-.27c-.25-1.64-.47-3.14-.65-4.4l-.11-.8.78.2a12.62 12.62 0 0 1 2.61 1.1c.38.19.75.38 1.12.54l.31.14v.34c0 1 .06 2.43.14 4.13zm-3.23-2.57c.51.24 1 .46 1.56.67l.52.22c-.05-1.17-.08-2.18-.1-3l-.85-.43c-.53-.26-1.06-.54-1.61-.75.09 1.01.25 2.11.43 3.29zM79.24 56.67a1.63 1.63 0 0 1-.31 0l-1.05-.22a1.68 1.68 0 0 1-1.09-.84 1.66 1.66 0 0 1-.1-1.36c.65-1.77 1.2-3.12 1.56-3.94a1.65 1.65 0 0 1 2.22-.84l.89.42a1.65 1.65 0 0 1 .83 2.11c-.32.76-.82 2-1.39 3.58a1.67 1.67 0 0 1-1.56 1.09zm.52-6.32a.65.65 0 0 0-.2 0 .59.59 0 0 0-.33.31c-.35.81-.9 2.14-1.53 3.89a.58.58 0 0 0 0 .48.57.57 0 0 0 .39.3l1 .22a.59.59 0 0 0 .66-.38 67.49 67.49 0 0 1 1.4-3.63.58.58 0 0 0-.29-.75l-.9-.42a.54.54 0 0 0-.2-.02z"/><path class="cls-2" d="M80 56.29a31.37 31.37 0 0 1-3.21-.71c-.31.89-.64 1.88-1 2.93a14.3 14.3 0 0 1 3.11 1.06c.38-1.19.74-2.29 1.1-3.28z"/><path class="cls-2" d="m79.25 60.31-.56-.25a13.16 13.16 0 0 0-3-1l-.59-.12.18-.57c.32-1.06.65-2.05 1-3l.16-.48.49.14a30 30 0 0 0 3.15.7l.62.11-.2.6c-.34 1-.7 2.07-1.06 3.26zm-2.76-2.2a15.07 15.07 0 0 1 2.09.73c.23-.75.47-1.47.69-2.13-.8-.16-1.51-.31-2.15-.48-.21.59-.42 1.22-.63 1.88z"/><path class="cls-2" d="m76.66 72.13-1.11-.32c-.9-.26-1.83-.53-2.73-.85l-.42-.15.07-.44a83.54 83.54 0 0 1 2.83-12l.14-.46.47.09a14.78 14.78 0 0 1 3.23 1.11l.43.19-.14.45a83.76 83.76 0 0 0-2.68 11.79zm-3.06-2c.72.24 1.46.45 2.19.66a83.41 83.41 0 0 1 2.48-10.89 14.76 14.76 0 0 0-2.1-.73A85.45 85.45 0 0 0 73.6 70.1zm4.29 24.12-.76-.06a19.23 19.23 0 0 1-3.68-.6l-.31-.09-.07-.3a49.46 49.46 0 0 1-1.44-10.8v-.65l.64.11a14.61 14.61 0 0 1 3.5 1.14l.31.14v.33a44.76 44.76 0 0 0 1.59 10zM74 92.63a17.61 17.61 0 0 0 2.41.43A45.5 45.5 0 0 1 75 83.87a15.45 15.45 0 0 0-2.31-.82A48.32 48.32 0 0 0 74 92.63z"/><path class="cls-2" d="M77.17 93.66a18.29 18.29 0 0 1-3.58-.59 38.5 38.5 0 0 0 4.85 11.4h3.92a34.4 34.4 0 0 1-5.19-10.81z"/><path class="cls-2" d="M83.41 105h-5.27l-.16-.24a39.6 39.6 0 0 1-4.91-11.56l-.23-.88.88.23a18.06 18.06 0 0 0 3.48.57h.38l.1.36a34.08 34.08 0 0 0 5.11 10.65zm-4.68-1.07h2.6a35.44 35.44 0 0 1-4.58-9.77 18.79 18.79 0 0 1-2.42-.36 38.35 38.35 0 0 0 4.4 10.13z"/><path class="cls-2" d="M86 109.29h-4.61l-.16-.18a38.69 38.69 0 0 1-3.23-4.35l-.52-.83h5.17l.16.23a33.19 33.19 0 0 0 3.56 4.17l-.32.33.34-.32 1 .93zm-4.14-1.07h2.86a33 33 0 0 1-2.63-3.22h-2.66a36.17 36.17 0 0 0 2.46 3.22zm116.5-16.52.26-1.27a41.57 41.57 0 0 1 1.38-4.84l.06-.18.33-.23a3.2 3.2 0 0 1 3.61 0l.5.43-.28.45c-.88 1-1.73 2.15-2.6 3.37l-.14.14zm2.6-5.6c-.35 1.05-.7 2.14-1 3.23l.82-.55c.74-1 1.46-2 2.2-2.89a2.1 2.1 0 0 0-2 .19z"/><path class="cls-2" d="M203.8 85.76c-1 1.14-1.81 2.28-2.62 3.41a74.47 74.47 0 0 1-6.32 15.83l2.81 1.56a78.33 78.33 0 0 0 7.06-18.1 2.61 2.61 0 0 0-.93-2.7z"/><path class="cls-2" d="m197.88 107.29-3.75-2.07.26-.47a73.1 73.1 0 0 0 5.92-14.34l-1.23.83 1.66-2.38c.89-1.25 1.76-2.37 2.65-3.44l.34-.4.41.32a3.14 3.14 0 0 1 1.11 3.25 78.42 78.42 0 0 1-7.11 18.23zm-2.3-2.5 1.88 1a77.42 77.42 0 0 0 6.75-17.5 2 2 0 0 0-.37-1.77c-.71.86-1.4 1.77-2.11 2.76a74.16 74.16 0 0 1-6.15 15.51zm4.93-19.03-70.6 47.18a4.12 4.12 0 0 1-3.41.54c-6.47-1.83-23.36-7.9-40.47-24.72h-4.39c.65.76 1.34 1.51 2.08 2.24 17.66 17.38 35.19 23.68 41.9 25.58a7.59 7.59 0 0 0 2 .27 7.34 7.34 0 0 0 4.07-1.23l67.46-45.09a40.64 40.64 0 0 1 1.36-4.77z"/><path class="cls-2" d="M127.62 137.39a7.86 7.86 0 0 1-2.15-.3c-6.75-1.91-24.37-8.24-42.13-25.71-.67-.66-1.34-1.38-2.11-2.27l.41-.89H86l.37.16c17 16.73 33.82 22.77 40.24 24.58a3.58 3.58 0 0 0 3-.46l70.6-47.19.81.61a39.82 39.82 0 0 0-1.35 4.72l-.22.34L132 136.06a7.83 7.83 0 0 1-4.38 1.33zm-44.79-28.1c.44.49.85.92 1.26 1.33 17.58 17.3 35 23.55 41.68 25.44a6.83 6.83 0 0 0 5.63-.89l67.27-45c.22-1.06.53-2.12.85-3.15l-69.31 46.33a4.67 4.67 0 0 1-3.86.61c-6.49-1.84-23.39-7.91-40.54-24.71zm-6.61-37.85c-1.08-.31-2.17-.61-3.22-1a65.89 65.89 0 0 0-.83 11.93 14 14 0 0 1 3.39 1.12 62.82 62.82 0 0 1 .66-12.05z"/><path class="cls-2" d="m76.13 84.36-.79-.36a13.72 13.72 0 0 0-3.26-1.08l-.43-.08v-.44a67.81 67.81 0 0 1 .84-12l.1-.63.61.21c.87.31 1.78.57 2.67.83l1 .28-.07.46a62.49 62.49 0 0 0-.66 12zm-3.43-2.42a13.64 13.64 0 0 1 2.29.75 62.58 62.58 0 0 1 .64-10.86h-.08c-.7-.2-1.41-.41-2.12-.64a64.78 64.78 0 0 0-.73 10.75z"/><path class="cls-1" d="m59.82 47.01 2.29 2.13"/><path class="cls-2" d="M63.66 48.19a1.09 1.09 0 0 1-.8-.34l-1.43-1.44a1.12 1.12 0 0 1 0-1.59l3-2.49c.3-.33.64-.71 1.07-.72a.71.71 0 0 1 .52.2l1.43 1.44a1.13 1.13 0 0 1 0 1.6l-3 3a1.14 1.14 0 0 1-.79.34zm1.83-5.4a2.81 2.81 0 0 0-.25.26l-.17.18-2.92 2.38 1.47 1.49.46.38-.38-.38 3-3z"/><path class="cls-2" d="M63.59 48a14 14 0 0 0-2.26-2.29l-1.26 1.26c.67.72 1.71 1.36 2.5 2.05z"/><path class="cls-2" d="m62.59 49.72-.37-.33c-.31-.27-.65-.52-1-.78a11.67 11.67 0 0 1-1.54-1.31l-.35-.38 2-2 .37.3a14.29 14.29 0 0 1 2.3 2.42l.29.37zm-1.76-2.79c.32.28.68.55 1 .82l.67.51.33-.33a12.75 12.75 0 0 0-1.51-1.52z"/><path class="cls-2" d="m55 59-.49-.44a17.72 17.72 0 0 0-1.9-1.38l-1.08-.74.25-.43a39.4 39.4 0 0 1 2.78-4.28l.18-.22 5.34-5.33.38.4a10 10 0 0 0 1.4 1.18c.36.28.73.55 1.05.84l.44.37-.41.41s-3.61 3.56-4.77 4.76a6.87 6.87 0 0 0-.44.53c-.82 1.16-1.63 2.43-2.4 3.76zm-2-2.88.25.17c.52.34 1.05.7 1.51 1.06.69-1.16 1.41-2.27 2.13-3.3a6.62 6.62 0 0 1 .55-.65c.92-1 3.37-3.39 4.36-4.36-.18-.15-.36-.28-.55-.42-.39-.3-.79-.6-1.14-.92l-4.54 4.54-.13.15A34.15 34.15 0 0 0 53 56.11z"/><path class="cls-2" d="M54.88 58.16a28.29 28.29 0 0 0-2.62-1.89 61.79 61.79 0 0 0-6.11 14.52c1 .26 2.08.44 3.11.67a58.82 58.82 0 0 1 5.62-13.3z"/><path class="cls-2" d="m49.64 72.09-.49-.1-1.1-.23c-.69-.14-1.38-.28-2-.45l-.53-.14.15-.53A62.77 62.77 0 0 1 51.79 56l.29-.49 1.14.77a19.55 19.55 0 0 1 2 1.48l.32.29-.22.37a58.49 58.49 0 0 0-5.56 13.19zm-2.83-1.69 1.45.31.63.12a59.26 59.26 0 0 1 5.3-12.55c-.46-.37-1-.75-1.57-1.11l-.19-.17a61.9 61.9 0 0 0-5.62 13.4z"/><path class="cls-2" d="m48.23 79.06-.56-.06-1.22-.22c-.64-.11-1.3-.22-1.92-.38l-.47-.12.07-.48a57 57 0 0 1 1.5-7.11l.14-.51.51.14c.64.17 1.31.3 2 .44l1.12.23.55.12-.15.55a52.68 52.68 0 0 0-1.47 6.89zm-3-1.64c.44.1.9.17 1.35.25l.71.12a53.48 53.48 0 0 1 1.26-5.92l-.54-.11-1.52-.32a53.05 53.05 0 0 0-1.22 5.98z"/><path class="cls-2" d="M47.78 78.42c-1-.21-2.12-.33-3.12-.59-1.06 7.35-.5 14.69 2.39 20.94 1-.36 2-.94 2.92-1.34-2.61-5.65-3.13-12.31-2.19-19.01z"/><path class="cls-2" d="m46.78 99.45-.21-.45c-2.74-5.92-3.57-13.27-2.44-21.25l.09-.59.58.15c.58.15 1.21.26 1.82.36.43.07.85.14 1.27.23l.49.1-.07.5c-1 7.06-.25 13.53 2.15 18.7l.23.51-.51.21c-.42.18-.84.39-1.27.6a16.75 16.75 0 0 1-1.67.76zm-1.67-21c-1 7.34-.2 14.09 2.22 19.6.36-.15.73-.34 1.11-.52s.55-.28.82-.4C47 92 46.29 85.7 47.18 78.85l-.73-.12c-.45-.08-.89-.15-1.34-.25z"/><path class="cls-2" d="m49.93 103.82-.2-.22a17.65 17.65 0 0 1-2.95-4.11 2.55 2.55 0 0 1-.13-.29c0-.06 0-.13-.08-.2l-.25-.52.55-.21c.51-.19 1-.44 1.57-.71s.88-.44 1.33-.63l.47-.19.22.46.09.22.09.19a15.62 15.62 0 0 0 3 3.94l.49.48-.59.36a11 11 0 0 1-3.32 1.37zm-2.17-4.76a16.37 16.37 0 0 0 2.55 3.58 9.28 9.28 0 0 0 2.1-.84 15.53 15.53 0 0 1-2.71-3.66l-.79.38c-.37.18-.76.37-1.15.54z"/><path class="cls-2" d="M53.27 101.93a10.16 10.16 0 0 1-3.15 1.3c8.17 8.87 28.37 19.17 43 25.9.93-.72 2-1.4 2.92-2.19-17.87-8.11-35.33-17.54-42.77-25.01z"/><path class="cls-2" d="m93.2 129.75-.29-.14c-15.21-7-35-17.17-43.18-26l-.64-.7.92-.19a9.34 9.34 0 0 0 3-1.25l.36-.21.29.3c8.79 8.83 30.48 19.39 42.62 24.9l.78.35-.66.55c-.59.5-1.22 1-1.82 1.39l-1.11.81zm-42.07-26.23c8.32 8.51 27.23 18.22 41.93 25l.88-.64c.36-.26.73-.53 1.09-.81-12.21-5.57-33-15.77-41.84-24.47a11.84 11.84 0 0 1-2.06.92z"/><path class="cls-2" d="m100.27 132.92-.28-.13c-2.13-.93-4.52-2-7.08-3.18l-.81-.37.71-.54c.36-.28.74-.55 1.13-.83.59-.43 1.2-.87 1.77-1.34l.26-.22.3.14q3.36 1.51 6.7 3l.65.29-.45.55a14.35 14.35 0 0 1-2.65 2.49zM94.18 129c2.13 1 4.13 1.87 6 2.67a13.82 13.82 0 0 0 1.73-1.58q-2.87-1.25-5.74-2.55c-.51.42-1 .8-1.56 1.18z"/><path class="cls-2" d="m180.82 81-71.14 50.68a2.19 2.19 0 0 1-2.14.24c-1.58-.66-3.18-1.35-4.78-2a14.16 14.16 0 0 1-2.55 2.39c2.41 1.06 4.49 1.95 6.08 2.62a5.42 5.42 0 0 0 5.26-.59l69-49.19c.09-1.46.23-2.8.27-4.15z"/><path class="cls-2" d="M108.4 135.88a5.9 5.9 0 0 1-2.32-.47c-1.59-.67-3.68-1.56-6.09-2.62l-.85-.37.75-.55a13.15 13.15 0 0 0 2.45-2.3l.26-.32.37.16c1.6.7 3.2 1.38 4.77 2.05a1.7 1.7 0 0 0 1.63-.19l72-51.31v1.08c0 .69-.07 1.38-.12 2.09s-.09 1.34-.11 2v.27l-69.26 49.33a5.92 5.92 0 0 1-3.48 1.15zm-7.15-3.71c2.06.9 3.84 1.66 5.25 2.25a4.85 4.85 0 0 0 4.74-.53l68.83-49c0-.62.06-1.21.1-1.8 0-.32.05-.64.07-1l-70.25 50a2.7 2.7 0 0 1-2.66.3c-1.46-.61-2.94-1.24-4.42-1.88a14.08 14.08 0 0 1-1.66 1.66z"/><path class="cls-2" d="M180 86.21v-1.09c0-.71.08-1.39.12-2.06s.1-1.38.12-2v-.27l.46-.32a3.51 3.51 0 0 1 4.14 0 4.44 4.44 0 0 1 .6.56l.34.39-.38.35c-.42.4-.87.78-1.32 1.16a16.25 16.25 0 0 0-1.82 1.67l-.09.07zm1.34-4.9c0 .6-.06 1.2-.11 1.82l-.06.93.38-.27a19.28 19.28 0 0 1 1.89-1.72l.86-.74a2.45 2.45 0 0 0-2.89 0z"/><path class="cls-2" d="m181.92 84.2.53-.38-15.93 51 3.07 1 16.11-51.6a3 3 0 0 0-.61-2.87c-1.02.96-2.25 1.83-3.17 2.85z"/><path class="cls-2" d="m169.94 136.48-4.09-1.28.16-.51 15.45-49.51-3.25 2.31 3.31-3.65a19 19 0 0 1 1.93-1.77c.44-.37.87-.73 1.27-1.12l.41-.38.37.42a3.52 3.52 0 0 1 .71 3.38zm-2.75-2 2.05.64 15.94-51.09a2.41 2.41 0 0 0-.18-1.9l-.86.74c-.39.32-.78.65-1.15 1z"/></g></g></svg>